<svg width="960" height="720" viewBox="0 0 960 720" fill="none" xmlns="http://www.w3.org/2000/svg">
  <rect width="960" height="720" rx="48" fill="url(#paint0_linear_1_2)"/>
  <circle cx="777" cy="134" r="92" fill="white" fill-opacity="0.28"/>
  <circle cx="154" cy="132" r="66" fill="white" fill-opacity="0.18"/>
  <path d="M173 502C173 389.886 263.886 299 376 299H648C727.529 299 792 363.471 792 443V463C792 542.529 727.529 607 648 607H254C209.265 607 173 570.735 173 526V502Z" fill="white"/>
  <path d="M222 455C222 388.726 275.726 335 342 335H648C701.019 335 744 377.981 744 431V447C744 500.019 701.019 543 648 543H222V455Z" fill="#F97316"/>
  <rect x="268" y="372" width="125" height="87" rx="18" fill="#FFF7ED"/>
  <rect x="410" y="372" width="125" height="87" rx="18" fill="#FFF7ED"/>
  <rect x="552" y="372" width="125" height="87" rx="18" fill="#FFF7ED"/>
  <rect x="621" y="477" width="83" height="66" rx="14" fill="#FED7AA"/>
  <rect x="256" y="477" width="333" height="24" rx="12" fill="#FDBA74"/>
  <circle cx="326" cy="566" r="46" fill="#1E293B"/>
  <circle cx="326" cy="566" r="21" fill="#CBD5E1"/>
  <circle cx="654" cy="566" r="46" fill="#1E293B"/>
  <circle cx="654" cy="566" r="21" fill="#CBD5E1"/>
  <path d="M714 338L777 300" stroke="#0F172A" stroke-width="16" stroke-linecap="round"/>
  <path d="M724 365H776" stroke="#0F172A" stroke-width="16" stroke-linecap="round"/>
  <path d="M204 563H136" stroke="#94A3B8" stroke-width="18" stroke-linecap="round"/>
  <path d="M786 563H824" stroke="#94A3B8" stroke-width="18" stroke-linecap="round"/>
  <path d="M113 598C177.8 579.6 243.667 583 268.5 588.5" stroke="#FFFFFF" stroke-width="10" stroke-linecap="round" stroke-opacity="0.5"/>
  <path d="M627 259C667.4 240.2 731.167 247.833 758 255" stroke="white" stroke-width="10" stroke-linecap="round" stroke-opacity="0.45"/>
  <defs>
    <linearGradient id="paint0_linear_1_2" x1="110" y1="82" x2="828" y2="637" gradientUnits="userSpaceOnUse">
      <stop stop-color="#FFE7D6"/>
      <stop offset="0.52" stop-color="#FFF7ED"/>
      <stop offset="1" stop-color="#DBEAFE"/>
    </linearGradient>
  </defs>
</svg>
